<svg xmlns="http://www.w3.org/2000/svg" viewBox="0 0 1200 900" role="img" aria-labelledby="title desc">
  <title id="title">StayNest listing image placeholder</title><desc id="desc">A landscape illustration shown when a property photo is unavailable.</desc>
  <defs><linearGradient id="sky" x1="0" x2="1" y1="0" y2="1"><stop offset="0" stop-color="#f1f5f9"/><stop offset="1" stop-color="#e2e8f0"/></linearGradient></defs>
  <rect width="1200" height="900" fill="url(#sky)"/><circle cx="910" cy="225" r="84" fill="#fef3c7"/>
  <path d="M0 595 292 348l185 146 210-224L1200 700v200H0Z" fill="#3b82f6" opacity=".25"/><path d="M0 700 310 510l152 104 260-164L1200 725v175H0Z" fill="#0d9488" opacity=".35"/><path d="M0 775 245 648l216 116 184-98 220 109 335-144v269H0Z" fill="#1e293b" opacity=".7"/>
  <g fill="#fff" opacity=".96"><path d="M501 504h198v190H501z"/><path d="m465 505 135-112 135 112z"/><path d="M564 566h44v128h-44zM632 566h44v128h-44z" fill="#2563eb"/></g><text x="600" y="838" text-anchor="middle" fill="#1e293b" font-family="Plus Jakarta Sans, -apple-system, sans-serif" font-size="34" font-weight="800" letter-spacing="3">STAYNEST</text>
</svg>
